# xmcd
#
# Track frame offsets:
#	150
#	33365
#	57360
#	74840
#	99330
#	132175
#	161430
#	188275
#	204392
#	219525
#	243347
#	271845
#	294910
#
# Disc length: 4418
#
# Revision: 4
# Processed by: cddbd v1.5.1PL0 Copyright (c) Steve Scherf et al.
# Submitted via: CDex 1.40Release
# Normalized: r3:TDELIM( - )
#
DISCID=b511400d
DTITLE=Various Artist - Woodstock '94 Disc 2
DYEAR=1900
DGENRE=
TTITLE0=Metallica - For Whom The Bell Tolls
TTITLE1=Paul Rodgers - The Hunter
TTITLE2=The Neville Brothers - Come Together
TTITLE3=Sheryl Crow - Run, Baby, Run
TTITLE4=Crosby, Stills and Nash - Deja Vu
TTITLE5=Violent Femmes - Dance, M.F., Dance! - Kiss Off
TTITLE6=Collective Soul - Shine
TTITLE7=Candlebox - Arrow
TTITLE8=Cypress Hill - How I Could Just Kill A Man
TTITLE9=Rollins Band - Right Here Too Much
TTITLE10=Bob Dylan - Highway 61
TTITLE11=Traffic - Pearly Queen
TTITLE12=Peter Gabriel - Biko
EXTD=
EXTT0=
EXTT1=
EXTT2=
EXTT3=
EXTT4=
EXTT5=
EXTT6=
EXTT7=
EXTT8=
EXTT9=
EXTT10=
EXTT11=
EXTT12=
PLAYORDER=
